<?xml version="1.0" encoding="utf-8"?>
<!-- Generator: Adobe Illustrator 14.0.0, SVG Export Plug-In . SVG Version: 6.00 Build 43363)  -->
<!DOCTYPE svg PUBLIC "-//W3C//DTD SVG 1.1//EN" "http://www.w3.org/Graphics/SVG/1.1/DTD/svg11.dtd">
<svg version="1.1" id="Layer_1" xmlns="http://www.w3.org/2000/svg" xmlns:xlink="http://www.w3.org/1999/xlink" x="0px" y="0px"
	 width="612px" height="792px" viewBox="0 0 612 792" enable-background="new 0 0 612 792" xml:space="preserve">
<g>
	<polygon fill-rule="evenodd" clip-rule="evenodd" fill="#FFFFFF" points="209,300 401.756,300 401.756,492.756 209,492.756 
		209,300 	"/>
	<path fill-rule="evenodd" clip-rule="evenodd" fill="#BCBEC0" d="M309.795,357.892c9.348-1.095,13.396-2.293,13.756-4.536
		l5.775,10.818c0,0.222,0.119,0.479,0.119,0.719v69.475l0,0c0,2.5-7.073,4.656-16.813,5.375v-69.766L309.795,357.892
		L309.795,357.892z M291.443,369.223l3.913-12.152c-6.306-0.719-8.185-2.602-8.322-3.783c0-0.017,0.017-0.017,0.017-0.017
		l-5.639,10.903c-0.068,0.171-0.085,0.445-0.085,0.633v69.56c0,1.883,3.998,3.561,10.116,4.588V369.223L291.443,369.223z"/>
	<path fill-rule="evenodd" clip-rule="evenodd" fill="#F15A22" d="M312.478,419.768c-1.264-0.344-2.956-1.199-2.665-1.199
		c-0.052-0.223-0.154-0.666-0.154-0.906c-0.051,0-0.393-0.273-0.41-0.291c-0.443,0-0.376,0.463-0.632,0.668
		c-0.513,0-1.128-0.359-1.555-0.549c-0.154-0.086-1.248-0.564-1.248-0.787c-0.085-0.223,0.171-0.582,0.291-0.752
		c-0.052-0.154-0.359-0.291-0.462-0.549c-0.205,0.086-0.205,0.086-0.307,0.291c-0.103,0.121-0.393,0.154-0.427-0.086
		c0-0.137-0.461-0.137-0.581-0.137c-0.291-0.359,0.444-0.6,0.53-0.787c0.632-0.324,0.291-1.078,0.376-1.473l0.513-0.443
		c0.273,0.066,0.53,0.033,0.615,0.033c0.325-0.309,0.599-0.838,0.923-1.129c0.257,0,0.77-0.48,0.803-0.736
		c0.41-0.805,0.496-1.883,1.572-1.883c0.444-0.104,0.496-0.463,0.752-0.703c0.667-0.734,1.589-1.557,1.948-2.48
		c0.068-0.273,0.29-0.787,0.376-0.908c0.889-1.42,0.786-0.428,1.315-0.598c0.906-0.719,1.128-1.85,2.272-3.184
		c-0.153-0.514,0.53-0.891,0.787-1.232c0.102-0.154,0.222-0.412,0.375-0.412c0.052,0,0.257,0.273,0.394,0.137
		c0.034-0.17,0.785-1.129,0.888-0.906c0.137,0.24,0.514,0.309,0.718,0.018c0.359-0.514,1.437-1.918,1.829-2.414
		c0.443-0.479-0.188,0.086-0.205,0c0-0.068-0.068-0.445,0.051-0.53c0.068-0.103,0.615-1.13,0.94-0.685
		c0.085,0.685,0.443,1.164,0.632,1.764c0.324,0.889,0.7,1.693,0.786,2.104c0.171,0.703,0.479,1.285,0.495,2.02
		c0,0.361,0.018,0.309-0.205,0.309c-0.529,0-0.29,0.873-0.153,1.096c0.205,0.24,0.443-0.309,0.7-0.102
		c0,0.17,0.018,0.324,0.086,0.428c0.068,0.221,0.103,0.479,0.119,0.736c0.188,1.061,0.239,2.121,0.445,3.199
		c-0.838,1.215-2.086,1.797-2.872,3.32c-0.512,1.027-1.145,2.055-1.264,3.184c-0.018,0-0.376-0.324-0.444-0.359
		c-0.359-0.324-1.025,0.959-1.299,1.096c-0.547,0.582-1.025,1.182-1.436,1.883c-0.358,0.736-0.684,1.455-0.786,2.277
		c-1.486-0.068-2.836-0.531-3.827-1.045c-0.205-0.137-0.359-0.359-0.633-0.24c-0.153,0-0.41,0.326-0.41,0.395
		c0,0.342,0.052,0.633,0.257,0.941c0,0.496,0.153,1.027,0.257,1.488L312.478,419.768z M329.429,404.191v25.777
		c-4.921-2.156-8.373-7.121-8.373-12.889S324.508,406.348,329.429,404.191L329.429,404.191z M326.113,437.209
		c-4.118,1.643-11.688,2.773-20.727,2.773c-1.538,0-3.059-0.035-4.511-0.104c-0.513-1.404-0.769-2.91-0.769-4.52
		c0-7.273,5.878-13.18,13.072-13.18c7.177,0,13.071,5.906,13.071,13.18C326.25,435.994,326.199,436.609,326.113,437.209
		L326.113,437.209z M291.563,393.819c-0.684-0.239-2.888-1.677-2.922-2.875c0-0.445-0.085-1.284-0.085-1.866
		c-0.359-0.599-0.239-1.01-0.137-1.78c0.342-1.113,0.461-1.404,1.333-1.969c0.051,0.309,0.461,1.284,0.752,1.01
		c0.222-0.359,0.085-0.907-0.017-1.472c-0.085-0.548-0.205-1.198-0.034-1.66c0.136-0.188,0.291-0.325,0.291-0.548
		c0-0.633,0.188-0.753,0.632-1.25c0.256-0.206,0.411-0.65,0.53-0.959c0.717-0.273,1.008-0.325,1.264-0.838
		c0.649,0,1.008-0.702,1.418-1.079c0.308-0.274,0.393-0.274,0.325,0.342c-0.256,1.849-0.461,3.902-0.239,5.819
		c0,0.086,0.068,0.479,0.256,0.633c0.342,1.147,0.052,2.345,0.496,2.414c0.291,0.343,0.069-1.643,0.069-1.985
		c-0.239-2.345-0.411-4.57,0.273-6.607c0.154-0.325,0.308-0.633,0.513-0.89c0.136-1.403,0.82-2.293,1.862-3.629
		c0.051,0.069,0.171,0.343,0.256,0.343c0.206-0.376,0.735-0.924,1.043-1.146c0.581-0.428,1.726-0.839,2.17-1.438
		c-0.085,0.411,0.359,0.65,0.034,0.907c-0.171,0.206-0.12,0.445-0.12,0.719c-0.222,0.308-0.513,0.65-0.735,0.89
		c-0.53,0.719-0.957,1.198-0.906,2.243c-0.068,0.12-0.154,0.342-0.222,0.411c0,1.147-0.188,1.37-0.376,1.917
		c-0.068,0.291-0.256,0.736-0.291,1.318c-0.051,1.678-0.222,2.414,0.034,3.749c0.188,1.267,0.274,2.379,0.513,3.56
		c0.273,1.472,0.598,2.961,1.179,4.296c0.068,0.359-0.273,1.078-0.632,0.993c-0.376-0.12-0.376,0.051-0.427,0.188
		c-1.059,0.291-2.119-0.24-3.247-0.137c-0.325,0.137-0.872,0.376-1.094,0.616C294.109,394.384,292.314,394.059,291.563,393.819
		L291.563,393.819z"/>
	<path fill-rule="evenodd" clip-rule="evenodd" fill="#399B60" d="M300.995,380.058c0.085-0.206,0.222-0.171,0.376,0.051
		c0.12,0.171,0.461-0.291,0.53-0.445c0.496-0.719,0.786-1.027,0.769-2.054c0.222-0.582,1.213-1.523,1.691-2.328
		c0.479-0.685,0-0.958,0.444-1.113c0.068-0.017,0.222-0.12,0.256-0.137c0.444-0.359,0.769-1.027,1.11-1.506
		c0.154-0.188,0.342-0.394,0.376-0.154c0.017,0.239-0.273,0.736-0.376,0.993c-0.153,0.445,0.154,0.445-0.017,1.352
		c-0.12,0.685-0.461,1.763-0.496,2.431c0.103,1.558,0.308,2.208,0.376,3.612c-0.103,2.824-0.308,2.926-1.47,5.186
		c-0.872,1.506-2.016,2.979-2.871,4.501C299.918,385.809,300.448,381.41,300.995,380.058L300.995,380.058z M317.16,422.848
		c-0.649-0.256-1.367-0.41-2.103-0.461c-0.495,0.291-1.571-1.645-1.742-2.705c-0.154-0.908-0.53-1.268-0.649-2.191
		c0.461,0.377,1.076,0.736,1.657,0.84c1.282,0.205,1.948,0.238,3.093,0.77c0.052-1.318,0.41-2.123,0.684-2.652
		c0.615-1.268,1.504-1.746,2.307-2.705c-0.342,1.729,0.786,2.602,1.043,3.953C319.638,418.912,317.519,422.027,317.16,422.848
		L317.16,422.848z M329.445,400.254v4.006c-0.923,0.342-1.726,0.805-3.16,1.865c0.272-2.465,1.281-4.057,2.802-5.527
		C329.206,400.477,329.326,400.375,329.445,400.254L329.445,400.254z"/>
	<path fill-rule="evenodd" clip-rule="evenodd" fill="#5670A0" d="M298.637,417.063l-3.366,3.68L283.6,410.027
		c-1.23-1.146-1.316-3.08-0.205-4.363l6.544-7.121l1.538,3.15l-3.828,4.176c-0.307,0.324-0.29,0.855,0.052,1.164l1.623,1.471
		l3.178-3.457l1.401,2.842l-2.427,2.619L298.637,417.063L298.637,417.063z M329.445,389.198v5.066l-13.328,13.744l-2.597-2.379
		L329.445,389.198L329.445,389.198z M306.395,385.929c0.82-1.353,1.333-2.807,1.436-4.228l3.298,3.012l2.188-2.447l1.161,2.396
		l-1.537,1.729l7.484,6.863l-2.751,2.979l-7.502-6.864l-1.162,1.301l-1.828-1.695l1.179-1.267L306.395,385.929L306.395,385.929z
		 M324.645,385.962c0.324,1.301,0.239,2.585-0.41,3.286c-2.051,2.277-4.512,2.071-6.306,0.429c-1.76-1.609-1.812-4.468-0.103-6.316
		c0.649-0.702,1.486-1.198,2.375-1.421l-1.145-1.043c-0.324-0.309-0.889-0.274-1.179,0.068l-2.598,2.842l-1.128-2.414l3.179-3.475
		c1.128-1.267,3.109-1.318,4.34-0.188l7.04,6.47l-1.247,1.369C326.712,386.391,325.55,386.51,324.645,385.962L324.645,385.962z
		 M320.185,384.063c-0.667,0.719-0.291,1.849,0.598,2.67c0.923,0.839,2.529,0.548,3.195-0.137c0.257-0.24,0.41-0.497,0.444-0.753
		l-1.504-1.386C321.995,383.583,320.851,383.327,320.185,384.063L320.185,384.063z M303.883,408.676
		c0.325,1.25,0.256,2.551-0.393,3.27c-2.05,2.242-4.528,2.037-6.288,0.445c-1.777-1.645-1.845-4.502-0.154-6.316
		c0.7-0.754,1.521-1.232,2.41-1.438l-1.145-1.045c-0.359-0.324-0.889-0.291-1.179,0.053l-2.597,2.824l-1.162-2.363l3.178-3.492
		c1.162-1.248,3.11-1.316,4.375-0.205l7.04,6.488l-1.281,1.352C305.985,409.053,304.789,409.223,303.883,408.676L303.883,408.676z
		 M299.458,406.742c-0.684,0.719-0.325,1.865,0.58,2.652c0.906,0.838,2.53,0.549,3.179-0.104c0.256-0.273,0.41-0.512,0.479-0.787
		l-1.538-1.402C301.234,406.262,300.124,406.023,299.458,406.742L299.458,406.742z M304.857,395.12L304.857,395.12L304.857,395.12z
		 M316.032,398.047l-1.35,1.488c-0.82,0.873-2.256,0.959-3.145,0.137l-5.023-4.638c-0.479-0.428-1.214-0.359-1.658,0.085
		c-0.427,0.497-0.393,1.215,0.085,1.643l6.664,6.128l-2.734,2.996l-9.33-8.559l2.734-2.996l0.649,0.565
		c0.222-0.993,0.666-1.985,1.23-2.602l0.598-0.684c0.769-0.839,2.922-1.233,4.101-0.137L316.032,398.047L316.032,398.047z"/>
	
		<path fill-rule="evenodd" clip-rule="evenodd" fill="#F15A22" stroke="#000000" stroke-width="0.3325" stroke-miterlimit="2.6131" d="
		M318.407,439.109c6.391-0.977,10.594-2.619,11.021-4.469v-20.162c-7.826,0.736-13.943,7.395-13.943,15.473
		C315.485,433.391,316.562,436.541,318.407,439.109L318.407,439.109z"/>
	
		<path fill-rule="evenodd" clip-rule="evenodd" fill="#BCBEC0" stroke="#000000" stroke-width="0.3325" stroke-miterlimit="2.6131" d="
		M321.859,441.658c-4.307,1.695-10.1,2.738-16.456,2.738c-6.493,0-12.388-1.094-16.711-2.84v0.975c0,2.156,7.621,3.834,16.626,3.834
		c8.988,0,16.541-1.746,16.541-3.816V441.658L321.859,441.658z"/>
	
		<path fill-rule="evenodd" clip-rule="evenodd" fill="#BCBEC0" stroke="#000000" stroke-width="0.3325" stroke-miterlimit="2.6131" d="
		M281.328,434.367c0,5.545,10.936,10.029,24.059,10.029c13.123,0,24.042-4.484,24.042-10.029c0,3.029-10.338,5.631-24.042,5.631
		S281.328,437.396,281.328,434.367L281.328,434.367z"/>
	<path fill="none" stroke="#000000" stroke-width="0.3325" stroke-miterlimit="2.6131" d="M329.429,364.653
		c0,4.022-15.054,5.631-24.042,5.631c-8.988,0-24.059-1.609-24.059-5.631v69.714c0,3.098,10.782,5.631,24.076,5.631
		c13.227,0,24.025-2.533,24.025-5.631l0,0V364.653L329.429,364.653z M323.533,353.356c-0.153,2.499-8.287,4.519-18.215,4.519
		c-10.082,0-18.284-2.054-18.284-4.587c0-0.017,0.017-0.017,0.017-0.017l-5.639,10.903c-0.068,0.154-0.085,0.325-0.085,0.479
		c0,3.098,10.782,5.631,24.076,5.631c13.227,0,24.025-2.533,24.025-5.631c0-0.154-0.034-0.325-0.103-0.479L323.533,353.356
		L323.533,353.356z"/>
	
		<path fill-rule="evenodd" clip-rule="evenodd" fill="#BCBEC0" stroke="#000000" stroke-width="0.3323" stroke-miterlimit="2.6131" d="
		M305.284,346.39c10.048,0,18.25,2.071,18.25,4.604c0,2.534-8.201,4.604-18.25,4.604c-10.064,0-18.266-2.071-18.266-4.604
		C287.018,348.461,295.22,346.39,305.284,346.39L305.284,346.39z"/>
	
		<path fill-rule="evenodd" clip-rule="evenodd" fill="#BCBEC0" stroke="#000000" stroke-width="0.3323" stroke-miterlimit="2.6131" d="
		M305.284,348.684c10.048,0,18.25,2.071,18.25,4.604c0,2.534-8.201,4.604-18.25,4.604c-10.064,0-18.266-2.071-18.266-4.604
		C287.018,350.755,295.22,348.684,305.284,348.684L305.284,348.684z"/>
	
		<path fill-rule="evenodd" clip-rule="evenodd" fill="#BCBEC0" stroke="#000000" stroke-width="0.3325" stroke-miterlimit="2.6131" d="
		M323.533,351.268c-0.581,2.379-8.543,4.331-18.232,4.331c-10.081,0-18.283-2.088-18.266-4.604l-0.017,2.293
		c0,2.585,8.407,4.604,18.301,4.604c9.894,0,18.215-2.088,18.215-4.587V351.268L323.533,351.268z"/>
	
		<path fill-rule="evenodd" clip-rule="evenodd" fill="#BCBEC0" stroke="#000000" stroke-width="0.3325" stroke-miterlimit="2.6131" d="
		M311.35,354.708c2.427,0,4.443-0.771,4.443-1.712c0-0.941-2.017-1.711-4.443-1.711c-0.854,0-2.118,0.291-3.451,0.188
		c-2.717-0.206-4.904-1.917-7.707-1.917c-2.888,0-5.211,0.976-5.211,2.157c0,1.181,2.358,2.156,5.246,2.156
		C311.077,353.87,307.745,354.708,311.35,354.708L311.35,354.708z M311.35,354.041c1.932,0,3.504-0.479,3.504-1.044
		c0-0.564-1.572-1.044-3.504-1.044c-1.965,0-3.537,0.479-3.537,1.044C307.813,353.562,309.385,354.041,311.35,354.041
		L311.35,354.041z"/>
	<path fill-rule="evenodd" clip-rule="evenodd" fill="#399B60" d="M393.284,364.653c0,4.022-15.054,5.631-24.042,5.631
		c-8.987,0-24.059-1.609-24.059-5.631v69.714c0,3.098,10.782,5.631,24.076,5.631c13.226,0,24.024-2.533,24.024-5.631l0,0V364.653
		L393.284,364.653z"/>
	<path fill-rule="evenodd" clip-rule="evenodd" fill="#F15A22" d="M387.39,353.356c-0.154,2.499-8.288,4.519-18.216,4.519
		c-10.081,0-18.283-2.054-18.283-4.587c0-0.017,0.018-0.017,0.018-0.017l-5.64,10.903c-0.068,0.154-0.085,0.325-0.085,0.479
		c0,3.098,10.782,5.631,24.076,5.631c13.226,0,24.024-2.533,24.024-5.631c0-0.154-0.033-0.325-0.103-0.479L387.39,353.356
		L387.39,353.356z"/>
	<path fill-rule="evenodd" clip-rule="evenodd" fill="#5670A0" d="M378.692,399.365c0.307,0.684,1.11,0.975,1.691,0.375
		l-4.033,4.092l-4.732-10.749l2.973-3.013L378.692,399.365L378.692,399.365z M376.095,382.676l1.315-1.335l1.812,4.057l1.06-1.079
		l0.632,1.438l-1.059,1.078l3.194,7.257c0.325,0.753,1.06,1.267,1.948,0.976l-4.032,4.092l-4.102-9.312l-0.922,0.941l-0.633-1.455
		c1.555-1.78,1.794-4.313,0.957-6.265L376.095,382.676L376.095,382.676z M361.468,403.352l-4.75,4.811
		c0.41-0.41,1.486,0.395,1.862,1.232l5.946,13.369l4.032-4.074c-0.888,0.273-1.623-0.205-1.965-0.977l-1.486-3.424
		c0.854-0.17,1.367-0.223,1.999-0.838c1.333-1.352,2.341-2.652,0.872-6.127l-1.59-3.783
		C365.603,401.641,363.33,401.471,361.468,403.352L361.468,403.352z M362.117,405.715l0.017-0.018
		c0.376-0.377,0.957-0.119,1.18,0.41l2.102,4.57c0.222,0.514,0.034,1.217-0.256,1.523l-0.018,0.018
		c-0.239,0.24-0.837,0.137-1.076-0.393l-2.085-4.4C361.741,406.896,361.604,406.229,362.117,405.715L362.117,405.715z
		 M370.644,393.408l1.657,3.73c-0.358-0.051-0.751,0.086-1.076,0.43c-0.547,0.547-0.82,1.471-0.7,2.258l2.118,4.793
		c0.325,0.719,1.077,1.268,1.966,0.977l-4.033,4.072l-3.776-8.592c-0.376-0.838-1.504-1.592-1.896-1.197l3.024-3.064l0.923,2.123
		c-0.547-1.66-0.051-3.698,1.401-5.17C370.388,393.648,370.524,393.528,370.644,393.408L370.644,393.408z M354,403.918l1.504,4.398
		c-1.35-1.66-3.588-1.848-4.699-0.787c-1.384,1.334-1.999,3.201,1.487,4.57l5.468,2.156c4.135,1.625,4.699,6.109,2.819,9.619
		c-1.726,3.184-5.485,5.957-9.381,4.262l-0.752-4.93c0.905,1.301,2.58,2.447,4.152,1.951c1.401-0.461,2.58-1.523,2.632-3.098
		c0.067-0.992-1.111-2.037-2.632-2.773l-5.331-2.516c-1.487-0.701-2.854-1.883-3.486-3.32c-0.649-1.438-0.632-3.219,0.496-5.271
		c0.922-1.574,2.46-3.166,4.135-3.92C351.438,403.797,352.668,403.645,354,403.918L354,403.918z M386.894,383.344l-1.691,1.712
		l-0.444-0.958c-0.358-0.736-0.444-1.541,0.223-2.226c0.648-0.65,1.247,0,1.486,0.531L386.894,383.344L386.894,383.344z
		 M390.09,382.283l-4.187,4.245c0.957,1.9,2.17,2.157,3.161,1.369c0.786-0.633,1.589-2.071,1.845-3.731l1.025,2.311
		c-0.529,2.003-1.315,3.132-2.785,4.622c-0.974,0.976-2.222,1.215-3.366,0.856s-2.222-1.335-2.854-2.773l-0.939-2.157
		c-1.385-3.167-0.171-4.964,1.503-6.641l0.444-0.462c0.667-0.668,1.658-1.267,2.529-1.455c1.418-0.274,2.358,0.993,2.888,2.157
		L390.09,382.283L390.09,382.283z"/>
	<path fill-rule="evenodd" clip-rule="evenodd" fill="#FFFFFF" d="M379.29,397.551c0.324,0.701,1.11,0.975,1.691,0.393l-4.016,4.074
		l-4.733-10.732l2.974-3.012L379.29,397.551L379.29,397.551z M376.71,380.862l1.315-1.335l1.794,4.057l1.06-1.061l0.633,1.438
		l-1.06,1.079l3.212,7.257c0.325,0.753,1.06,1.267,1.948,0.976l-4.033,4.075l-4.101-9.294l-0.939,0.941l-0.615-1.455
		c1.555-1.78,1.794-4.33,0.957-6.264L376.71,380.862L376.71,380.862z M362.083,401.555l-4.75,4.811
		c0.393-0.41,1.486,0.393,1.862,1.232l5.93,13.367l4.032-4.09c-0.872,0.291-1.606-0.205-1.948-0.959l-1.504-3.424
		c0.872-0.17,1.385-0.223,2-0.838c1.332-1.352,2.357-2.67,0.889-6.129l-1.59-3.799C366.201,399.844,363.928,399.672,362.083,401.555
		L362.083,401.555z M362.732,403.918V403.9c0.376-0.377,0.956-0.119,1.195,0.41l2.085,4.553c0.239,0.531,0.052,1.232-0.239,1.541
		l-0.017,0.018c-0.239,0.238-0.854,0.137-1.076-0.395l-2.103-4.416C362.356,405.098,362.22,404.432,362.732,403.918L362.732,403.918
		z M371.259,391.611l1.641,3.731c-0.342-0.051-0.735,0.086-1.077,0.428c-0.546,0.548-0.803,1.472-0.683,2.242l2.118,4.811
		c0.325,0.719,1.077,1.25,1.948,0.975l-4.016,4.074l-3.776-8.592c-0.376-0.84-1.504-1.592-1.914-1.199l3.042-3.063l0.923,2.122
		c-0.547-1.659-0.052-3.696,1.4-5.168C370.985,391.833,371.122,391.714,371.259,391.611L371.259,391.611z M354.615,402.121
		l1.487,4.398c-1.351-1.66-3.571-1.85-4.683-0.787c-1.384,1.334-1.999,3.199,1.487,4.57l5.468,2.156
		c4.118,1.627,4.682,6.109,2.803,9.619c-1.709,3.184-5.469,5.939-9.364,4.244l-0.752-4.912c0.889,1.301,2.563,2.447,4.135,1.951
		c1.419-0.463,2.598-1.523,2.649-3.098c0.068-0.992-1.111-2.037-2.649-2.773l-5.314-2.533c-1.485-0.701-2.853-1.883-3.502-3.303
		c-0.633-1.438-0.615-3.219,0.495-5.289c0.939-1.559,2.478-3.166,4.152-3.902C352.053,402,353.266,401.83,354.615,402.121
		L354.615,402.121z M387.509,381.547l-1.691,1.711l-0.444-0.959c-0.358-0.736-0.444-1.558,0.223-2.224
		c0.632-0.651,1.247,0,1.486,0.53L387.509,381.547L387.509,381.547z M390.704,380.485l-4.203,4.245
		c0.974,1.9,2.188,2.156,3.179,1.369c0.785-0.633,1.589-2.071,1.845-3.732l1.009,2.294c-0.513,2.019-1.316,3.149-2.785,4.621
		c-0.957,0.976-2.205,1.232-3.35,0.873s-2.222-1.335-2.854-2.773l-0.94-2.157c-1.384-3.167-0.17-4.964,1.487-6.658l0.461-0.445
		c0.649-0.685,1.658-1.284,2.512-1.455c1.436-0.274,2.376,0.993,2.889,2.157L390.704,380.485L390.704,380.485z"/>
	<path fill-rule="evenodd" clip-rule="evenodd" fill="#5670A0" d="M374.779,382.488c-0.018-0.531-0.154-0.907-0.342-0.941
		c-0.376-0.086-0.667,0.513-1.333,0.582c-0.444,0.068-0.957,0.086-1.675,0.12c-0.325,0.034-0.649,0.051-0.939,0.068
		c-1.06,0.051-2.137,0.479-2.785,1.147c-1.418,1.558-1.196,3.611-1.146,5.511c0,0.479,0.154,0.89,0.342,0.941
		c0.376,0.068,0.667-0.496,1.333-0.582c0.461-0.068,0.939-0.086,1.691-0.12c0.291-0.034,0.599-0.051,0.923-0.068
		c0.991-0.052,2.102-0.479,2.734-1.164C375.069,386.425,374.864,384.422,374.779,382.488L374.779,382.488z"/>
	<path fill-rule="evenodd" clip-rule="evenodd" fill="#FFFFFF" d="M373.275,380.588c-0.018-0.513-0.154-0.907-0.342-0.924
		c-0.376-0.103-0.667,0.496-1.333,0.564c-0.444,0.069-0.974,0.103-1.675,0.137c-0.324,0.017-0.649,0.034-0.956,0.051
		c-1.043,0.068-2.119,0.497-2.769,1.164c-1.436,1.541-1.196,3.594-1.162,5.511c0.017,0.462,0.171,0.89,0.359,0.924
		c0.375,0.085,0.666-0.479,1.315-0.582c0.479-0.051,0.957-0.068,1.691-0.12c0.308-0.034,0.615-0.051,0.94-0.051
		c0.99-0.068,2.102-0.496,2.716-1.164C373.565,384.542,373.36,382.522,373.275,380.588L373.275,380.588z"/>
	<path fill-rule="evenodd" clip-rule="evenodd" fill="#E6E7E8" d="M345.184,398.971v-5.118c0.051-0.034,0.085-0.068,0.137-0.119
		c0.649-0.086,0.427-0.445,0.923-0.737c0-0.239,0.939-1.129,1.195-1.472c0-0.274,0.633-1.129,0.804-1.472
		c0.239,0.17,0.718,0.17,0.803-0.171c0.068-0.531,0.171-1.113,0.239-1.66c0.53-0.462,0.906-0.976,1.538-1.644
		c0.82-1.061,0.649-1.643,1.333-2.208c0-0.205-0.154-0.291-0.376-0.291c-0.359-0.445,0.991-0.924,1.281-0.924
		c0.376-0.36,0.684-0.753,1.11-1.044c0.343-0.702,1.128-0.736,1.777-1.044c0.103-0.805,0.854-1.352,1.452-1.832
		c0.411-0.753,0.838-1.575,1.231-2.328c0.17,0.171,0.905-0.359,0.905-0.479c0-0.188,0-0.377,0-0.548
		c0.324-0.308,0.495-0.24,0.922-0.24c0,0.479,0,0.411,0.308,0.788c0.188-0.377,1.658-1.489,2-1.78
		c0.324-0.36,0.666-0.702,0.991-1.044c0-0.137-0.667-0.222-1.043-0.616c0-0.839,0.496-0.976,0.496-1.027
		c0.222-0.24,0.837-0.976,1.162-0.976c0.239-0.205,0.683-0.633,0.974-0.787c0,0,0,0,0.017,0c0,0.223,0.171,0.171,0.342,0.171
		c0-0.051,0.034-0.103,0.052-0.154c0.53,0.017,1.076,0.034,1.641,0.034c-0.068,0.223-0.034,0.445,0.256,0.616
		c0.239,0.342,0.205,0.273,0.205,0.685c-0.308,0.291-0.563,0.856-0.991,1.027c-0.479,0.103-0.444-0.085-0.649-0.308
		c-0.29,0.137-0.358,0.685,0,0.855c0.086,0.24,0.41,0.445,0.649,0.479c-0.034,0.103-0.308,0.513-0.308,0.564
		c0.052,0.052,0.496,0.188,0.564,0.188c0.358,0.359,0.632-0.154,0.974-0.257c-0.171,0.274-0.239,0.616-0.495,0.856
		c-0.223,0.325-0.479,0.291-0.735,0.548c-0.171,0.359-0.068,1.044-0.786,1.044c-0.256,0.24-1.093,0.77-1.093,1.095
		c-0.325,0.343-1.658,1.353-1.658,1.643c0,0.736-0.103,0.924-0.905,0.924c-0.103,0.308-0.188,0.326-0.444,0.445
		c-0.273,0-1.333,0.667-1.333,1.027c0,0.171,0,0.325,0,0.497c0,0.411-1.042,0.154-1.042,0.976c-0.291,0.291-0.734,0.753-1.094,0.975
		c-0.496,0.154-0.975,0.411-1.162,0.856c0,0.428-0.974,0.907-1.162,1.404c0,0.599-0.358,1.661-1.094,1.661
		c-0.546,0-0.563,0-0.974,0.359c-0.393,0.137-1.23,0.89-1.23,1.353c0,0.411-0.803,0.65-1.11,0.788c-0.188,0-0.786,0.924-0.786,1.044
		c0,0.753-0.872,0.085-1.162,0.667c-0.308,0.343-0.291,0.685,0,0.976c-0.239,0.257-0.718,0.702-0.786,1.062
		c-0.324,0.325-1.025,0.787-1.537,0.53c-0.223,0.24-0.325,0.583-0.479,0.736c0,0.462,0.067,0.89,0.067,1.353
		c-0.324,0.137-0.939,0.016-1.162,0.41c-0.461,0.463-0.495,0.838-0.495,1.42C345.32,398.834,345.252,398.902,345.184,398.971
		L345.184,398.971z M350.873,437.979c2.017,0.564,4.494,1.027,7.331,1.369c0-0.102,0.018-0.205,0.034-0.324
		c0.205-0.205,1.042-0.6,1.042-0.855c0.188-0.207,0.137-0.6,0.496-0.498c0,0.068,0.051,0.566,0.119,0.566
		c0.085,0,1.23-1.131,1.401-1.303c0.564,0.172,1.213-0.666,1.641-0.975c0.324-0.223,0.547-0.291,0.632-0.736
		c0.633-0.65,1.128-1.523,2.051-1.523c0.718-0.701,1.675-1.402,2.393-2.139c0.546-0.137,0.444-0.633,0.615-0.977
		c-0.206-0.223-0.154-0.787,0.119-0.924c0.649-0.428,1.076-0.719,1.709-1.043c0.837-0.977,1.674-2.037,2.563-2.928
		c0.359-0.291,0.752-0.582,1.111-0.941c0-0.256,0.222-0.496,0.461-0.582c0.222,0.205,3.384-2.893,3.981-3.441
		c0-0.428,1.196-2.018,1.47-2.326c0.358-0.018,1.35-1.078,1.709-1.336c0.103,0,1.06-1.096,0.427-1.096
		c-0.393,0.633-0.854,0.344-0.854-0.496c-0.324-0.154-0.598-0.65-0.923-0.855c0-0.291-0.051-0.428,0.257-0.615
		c0.103,0.238,0.308,0.461,0.598,0.375c0.376-0.375,1.06-0.959,1.06-1.541c-0.598,0-0.547-0.719-0.324-1.162
		c0.222-0.445,1.657-1.986,1.657-1.215c0.58,0,0.974,0.119,1.213-0.549c0.257,0,0.513-0.496,1.111-0.496
		c0.204,0.086,0.854,0.428,1.024,0.428c0.068,0.393,0.376,0.805,0.667,0.291c-0.428,0,0-1.25,0.205-1.438
		c0.137-0.445,0.153-0.395,0.598-0.395c0.479,0,0.205-0.445,0.052-0.598c-0.394,0.137-0.854,0.188-1.265,0.188
		c-0.205,0.514-0.428,1.232-1.042,1.232c-0.104-0.189-0.12-0.855-0.12-1.113c-0.137,0.068-1.401,0.617-1.401,0.121
		c-0.324,0,0.103-0.65,0.12-0.686c0.444,0,0.581-0.309,0.734-0.668c0.479-0.238,1.18-0.445,1.589-0.855
		c0.684-0.309,0.991-0.992,1.385-1.592c0.615,0,1.127-0.223,1.247-0.838c0.479-0.498,0.837-1.131,1.333-1.609
		c0.495-0.223,0.205-0.342,0.734-0.104c0-0.443,0.034-0.906,0.034-1.369c0.239-0.205,0.086-0.41,0.513-0.582
		c0.12-0.307,0.53-0.547,0.923-0.582v-2.242c-0.103,0-0.205,0-0.308,0c-0.137,0.189-0.461,0.719-0.734,0.719
		c-0.479,0.326-1.128,0.531-1.59,0.137c-0.495,0.377-0.308,0.754-0.308,1.404c0.086,0.154,0.137,0.172,0.308,0.291
		c-0.102,0.377-0.734,0.891-0.734,1.182c0.257,0,0.154,0.188,0.291,0.188c-0.376,0.395-0.889,0.84-1.385,1.078
		c-0.427,0.428-0.649,0.6-1.299,0.496c-0.632,0.736-0.905,0.258-1.4,0.736c0,0.258-0.171,0.977-0.052,1.096
		c-0.41,0.309-0.154,0.736-0.854,0.736c-0.273-0.273-0.615,0.395-0.068,0.395c0,0.119,0.581-0.035,0.068,0.461
		c-0.513,0.137-1.281,0.719-1.281,1.301c-0.12,0.326-0.838,0.873-1.179,0.977c-0.513,0-0.273,0.359-0.411,0.666
		c0,0.635-1.059,0.721-1.452,0.189c-0.256,0.393-0.563,0.684-0.308,1.215c0.223,0,0.496,0.189,0.342,0.428
		c0,0.359-0.803,0.6-0.103,1.045c-0.051,0.119-0.188,0.445-0.188,0.547c-0.154-0.018-1.009-0.223-1.043-0.119
		c0,0.188-0.99,1.318-1.094,1.352c-0.443,0-0.734,0.189-0.974,0.48c-0.41,0.514-1.196,1.162-1.657,1.59
		c-0.786,0.121-0.376,0.43-0.376,0.908c0.324,0.975,0.666,0.068,1.042,0.445c-0.272,0.529-0.974,1.096-1.521,1.096
		c0,0,0-0.377,0-0.566c-0.598,0-0.769-0.221-1.042,0.326c0,0.463-0.41,1.01-0.923,0.855c-1.009,1.01-3.23,1.9-3.4,3.475
		c-0.615,0.617-1.128,0.137-1.709,1.301c-0.342,0.223-0.666,0.668-0.974,0.855c-0.394,0.104-1.589,1.148-1.965,1.523
		c0,0.445-1.18,0.359-1.453,0.359c-0.632,0.258-0.632,0.359-1.06,0.926c-0.974,1.197-2.084,2.293-3.298,3.234
		c-0.563,0.291-1.708,0.428-1.708,1.164c0.222,0.324,0.188,0.359,0.512,0.479c-0.137,0.291-0.632,1.045-0.632,1.301
		c-0.171,0.189-0.462,0.377-0.615,0.549c-0.666,0-1.418,0.051-2.067,0.051c-0.325,0.377-0.701,0.428-1.094,0.992
		c-0.666,0.771-1.538,1.746-2.461,2.209C350.925,437.414,350.959,437.637,350.873,437.979L350.873,437.979z M378.162,439.605
		c0.633-0.068,1.265-0.137,1.88-0.205c0.324-0.377,0.632-0.703,0.786-0.84c0.222-0.496,1.965-0.992,1.965-1.42
		c0.529-0.531,1.435-2.174,2.188-2.379c0.837,0.188,0.393,0.479,1.469-0.07c0.223-0.324,1.23-0.068,1.23-1.025
		c0.257-0.309,0.735-0.496,0.906-0.805c0-0.549,0-0.377,0.495-0.787c0-0.719-0.103-1.182,0.667-1.473
		c0.734,0,0.393-0.701,0.974-1.096c0.342,0,0.786-0.461,1.094-0.564c-0.103-0.77,0.444-0.342,0.119-1.146
		c0.342-0.342,0.923-0.805,1.35-1.268v-4.004c-0.103,0.119-0.222,0.307-0.358,0.615c-0.324,0.291-0.803,0.924-1.281,0.924
		c-0.633,0.771-1.504,1.404-2.137,2.123c-0.085-0.256-0.085-0.188,0.034-0.359c0.086-0.119,0.564-0.855,0.701-0.855
		c0-0.188-3.11,2.242-3.366,2.396c-0.428,0.324-0.905,0.838-1.213,1.283c0,0.359,0.375,0,0.479-0.068
		c0.734-0.736,1.846-1.678,2.819-2.07l0.119,0.051c-0.188,0.238-0.461,0.564-0.615,0.805c-0.461,0.461-1.06,0.992-1.538,1.455
		c-0.479,0.238-0.615,1.215-1.042,1.488c-1.504,0-0.479-0.531-0.905-0.805c-0.325,0.154-0.188,0.787-0.906,1.096
		c-0.017,0.086-1.846,3.732-1.537,3.732c0,0.666-0.615,0.529-0.854,1.043c-0.239,0.48-0.991,1.283-1.521,1.541
		c-0.034,0.273-0.393,1.318-0.734,1.318C379.085,438.424,378.624,439.057,378.162,439.605L378.162,439.605z M386.245,411.467
		c0.598,0,1.059,0.479,1.059,1.061c0,0.6-0.461,1.078-1.059,1.078c-0.599,0-1.06-0.479-1.06-1.078
		C385.186,411.945,385.646,411.467,386.245,411.467L386.245,411.467z M384.245,414.564c0.41,0,0.752,0.342,0.752,0.719
		c0,0.41-0.342,0.752-0.752,0.752s-0.718-0.342-0.718-0.752C383.527,414.906,383.835,414.564,384.245,414.564L384.245,414.564z
		 M386.449,420.314c0.394,0,0.719,0.359,0.719,0.754c0,0.377-0.325,0.719-0.719,0.719c-0.393,0-0.751-0.342-0.751-0.719
		C385.698,420.674,386.057,420.314,386.449,420.314L386.449,420.314z M386.313,417.766c0.291,0,0.513,0.221,0.513,0.496
		c0,0.273-0.222,0.512-0.513,0.512c-0.273,0-0.512-0.238-0.512-0.512C385.801,417.986,386.039,417.766,386.313,417.766
		L386.313,417.766z M384.724,422.352c0.273,0,0.496,0.223,0.496,0.496s-0.223,0.496-0.496,0.496c-0.29,0-0.529-0.223-0.529-0.496
		S384.434,422.352,384.724,422.352L384.724,422.352z M384.86,425.295c0.273,0,0.479,0.223,0.479,0.498
		c0,0.307-0.205,0.512-0.479,0.512c-0.29,0-0.529-0.205-0.529-0.512C384.331,425.518,384.57,425.295,384.86,425.295L384.86,425.295z
		 M350.31,370.798c0.632,0,1.162,0.496,1.162,1.112c0,0.65-0.53,1.164-1.162,1.164c-0.598,0-1.11-0.513-1.11-1.164
		C349.199,371.294,349.712,370.798,350.31,370.798L350.31,370.798z M348.208,374.101c0.41,0,0.769,0.343,0.769,0.771
		s-0.358,0.77-0.769,0.77c-0.444,0-0.786-0.342-0.786-0.77S347.764,374.101,348.208,374.101L348.208,374.101z M350.531,380.195
		c0.41,0,0.77,0.342,0.77,0.77c0,0.445-0.359,0.77-0.77,0.77c-0.427,0-0.769-0.325-0.769-0.77
		C349.763,380.537,350.104,380.195,350.531,380.195L350.531,380.195z M350.378,377.456c0.308,0,0.547,0.274,0.547,0.548
		c0,0.308-0.239,0.565-0.547,0.565c-0.29,0-0.529-0.257-0.529-0.565C349.849,377.73,350.088,377.456,350.378,377.456
		L350.378,377.456z M348.687,382.317c0.308,0,0.547,0.257,0.547,0.548s-0.239,0.53-0.547,0.53c-0.29,0-0.53-0.239-0.53-0.53
		S348.396,382.317,348.687,382.317L348.687,382.317z M348.823,385.466c0.324,0,0.547,0.257,0.547,0.548
		c0,0.308-0.223,0.547-0.547,0.547c-0.273,0-0.513-0.24-0.513-0.547C348.311,385.723,348.55,385.466,348.823,385.466
		L348.823,385.466z"/>
	
		<path fill-rule="evenodd" clip-rule="evenodd" fill="#BCBEC0" stroke="#000000" stroke-width="0.3325" stroke-miterlimit="2.6131" d="
		M385.698,441.658c-4.307,1.695-10.099,2.738-16.456,2.738c-6.493,0-12.388-1.094-16.711-2.84v0.975
		c0,2.156,7.621,3.834,16.626,3.834c8.988,0,16.541-1.746,16.541-3.816V441.658L385.698,441.658z"/>
	
		<path fill-rule="evenodd" clip-rule="evenodd" fill="#BCBEC0" stroke="#000000" stroke-width="0.3325" stroke-miterlimit="2.6131" d="
		M345.167,434.367c0,5.545,10.936,10.029,24.059,10.029s24.042-4.484,24.042-10.029c0,3.029-10.338,5.631-24.042,5.631
		S345.167,437.396,345.167,434.367L345.167,434.367z"/>
	<path fill="none" stroke="#000000" stroke-width="0.3325" stroke-miterlimit="2.6131" d="M393.268,364.653
		c0,4.022-15.054,5.631-24.042,5.631s-24.059-1.609-24.059-5.631v69.714c0,3.098,10.781,5.631,24.075,5.631
		c13.226,0,24.025-2.533,24.025-5.631l0,0V364.653L393.268,364.653z M387.372,353.356c-0.153,2.499-8.287,4.519-18.215,4.519
		c-10.082,0-18.284-2.054-18.284-4.587c0-0.017,0.018-0.017,0.018-0.017l-5.639,10.903c-0.068,0.154-0.085,0.325-0.085,0.479
		c0,3.098,10.781,5.631,24.075,5.631c13.226,0,24.025-2.533,24.025-5.631c0-0.154-0.034-0.325-0.103-0.479L387.372,353.356
		L387.372,353.356z"/>
	
		<path fill-rule="evenodd" clip-rule="evenodd" fill="#BCBEC0" stroke="#000000" stroke-width="0.3323" stroke-miterlimit="2.6131" d="
		M369.123,346.39c10.047,0,18.249,2.071,18.249,4.604c0,2.534-8.202,4.604-18.249,4.604c-10.064,0-18.267-2.071-18.267-4.604
		C350.856,348.461,359.059,346.39,369.123,346.39L369.123,346.39z"/>
	
		<path fill-rule="evenodd" clip-rule="evenodd" fill="#BCBEC0" stroke="#000000" stroke-width="0.3323" stroke-miterlimit="2.6131" d="
		M369.123,348.684c10.047,0,18.249,2.071,18.249,4.604c0,2.534-8.202,4.604-18.249,4.604c-10.064,0-18.267-2.071-18.267-4.604
		C350.856,350.755,359.059,348.684,369.123,348.684L369.123,348.684z"/>
	
		<path fill-rule="evenodd" clip-rule="evenodd" fill="#BCBEC0" stroke="#000000" stroke-width="0.3325" stroke-miterlimit="2.6131" d="
		M387.372,351.268c-0.581,2.379-8.543,4.331-18.232,4.331c-10.081,0-18.283-2.088-18.267-4.604l-0.017,2.293
		c0,2.585,8.407,4.604,18.301,4.604s18.215-2.088,18.215-4.587V351.268L387.372,351.268z"/>
	
		<path fill-rule="evenodd" clip-rule="evenodd" fill="#BCBEC0" stroke="#000000" stroke-width="0.3325" stroke-miterlimit="2.6131" d="
		M375.188,354.708c2.427,0,4.443-0.771,4.443-1.712c0-0.941-2.017-1.711-4.443-1.711c-0.854,0-2.118,0.291-3.451,0.188
		c-2.717-0.206-4.904-1.917-7.706-1.917c-2.889,0-5.212,0.976-5.212,2.157c0,1.181,2.358,2.156,5.246,2.156
		C374.916,353.87,371.583,354.708,375.188,354.708L375.188,354.708z M375.188,354.041c1.932,0,3.504-0.479,3.504-1.044
		c0-0.564-1.572-1.044-3.504-1.044c-1.965,0-3.536,0.479-3.536,1.044C371.652,353.562,373.224,354.041,375.188,354.041
		L375.188,354.041z"/>
	<path fill-rule="evenodd" clip-rule="evenodd" fill="#ED1C24" d="M239.736,405.834c-2.631-0.82-5.144-2.242-7.484-3.885
		c-2.324-1.643-4.512-3.885-5.861-6.402c-0.735-1.352-1.315-2.875-0.974-4.518c0.154-0.343,0.291-0.667,0.564-0.959
		c-0.085-0.359-0.291-0.77-0.359-1.164c-0.222-1.027-0.393-2.191-0.325-3.235c0.137-2.088,1.401-3.851,2.46-5.529
		c0.103-0.188,0.291-0.479,0.427-0.633c0.701,0.668,1.248,1.01,2.119,1.678c0.427,0.325,0.427,0.325,0.325,0.565
		c-0.991,1.574-2.256,2.875-3.025,4.553c-0.137,0.308-0.308,0.702-0.358,1.027c-0.085,0.667-0.222,1.42-0.085,2.157l0.051,0.017
		c2.016,0.137,3.947,0.564,5.485,1.643c1.025,0.702,2.205,1.677,2.205,3.046c0,0.411-0.256,0.788-0.53,1.044
		c-0.512,0.342-1.162,0.428-1.811,0.342c-1.999-0.308-3.776-1.729-5.109-3.235c-0.188-0.223-0.461-0.565-0.701-0.873
		c-0.035,0.616,0.291,1.164,0.615,1.695c1.418,2.293,3.725,4.091,5.895,5.614c2.341,1.643,4.87,2.91,7.587,3.748
		c0.308,0.137,0.683,0.223,1.008,0.273c1.248,0.188,3.092,0.496,3.811-0.787c0.666-1.182-0.154-2.498-0.991-3.338
		c-1.572-1.609-3.52-2.772-5.759-2.944c-0.393-0.034-0.871-0.034-1.042,0.343c-0.136,0.736,0.598,1.164,1.128,1.523
		c0.735,0.445,1.606,0.668,2.546,0.754c0.461,0.787,0.922,1.539,1.572,2.242c0.325,0.291,0.718,0.598,1.042,0.889
		c0.034,0.068-0.051,0.068-0.12,0.068c-2.358,0.189-4.494-0.701-6.22-2.174c-0.905-0.787-1.589-1.848-1.469-3.114
		c0.051-0.719,0.735-1.266,1.384-1.489c1.555-0.308,2.973,0.206,4.271,0.77c2.529,1.13,5.212,3.287,5.725,6.197
		c0.239,1.369-0.068,2.789-1.248,3.645c-1.059,0.822-2.478,1.113-3.896,1.027C241.616,406.365,240.659,406.107,239.736,405.834
		L239.736,405.834z M232.816,394.486c0.41,0.052,0.837,0.052,0.974-0.291c0.137-0.308-0.068-0.65-0.256-0.873
		c-1.384-1.746-3.537-2.636-5.793-2.739c-0.068,0.051-0.136,0.051-0.136,0.103c0.564,0.925,1.418,1.797,2.256,2.414
		C230.731,393.75,231.705,394.315,232.816,394.486L232.816,394.486z M238.198,389.232c0.479,0.342,1.094,0.582,1.658,0.274
		c0.41-0.24,0.667-0.599,0.752-0.993c-0.291-0.205-0.684-0.325-1.008-0.393c-0.547-0.12-1.213-0.343-1.708,0.068
		c-0.188,0.274-0.069,0.548,0.068,0.753C238.011,389.061,238.113,389.181,238.198,389.232L238.198,389.232z M243.137,392.09
		c0.564,0.171,1.418,0.497,1.965,0.034c0.12-0.188,0.12-0.462,0.017-0.65c-0.751-1.112-2.033-1.763-3.178-2.379l-0.188-0.034
		c-0.308,0.548-0.752,1.198-1.299,1.626v0.069c0.307,0.188,0.615,0.411,0.923,0.547C241.923,391.56,242.556,391.902,243.137,392.09
		L243.137,392.09z M243.085,379.15c0.564,0.188,1.23,0.514,1.897,0.359c0.12-0.034,0.188-0.137,0.136-0.274
		c-0.102-0.394-0.478-0.65-0.803-0.89c-1.709-1.25-3.691-2.14-5.639-2.944c-0.188-0.068-0.563-0.239-0.718-0.051
		c-0.103,0.137,0.018,0.273,0.052,0.394c0.769,1.096,1.948,1.849,3.076,2.465C241.685,378.551,242.385,378.928,243.085,379.15
		L243.085,379.15z M236.268,431.543c-1.897-0.805-3.708-2.225-4.938-3.953c-0.461-0.789-0.906-1.746-0.461-2.67
		c0.358-0.721,1.213-0.941,1.931-0.994c0.461,0.053,0.974,0.086,1.401,0.172c0.239,0.068,0.512,0.154,0.751,0.24
		c0.051-0.359-0.137-0.703-0.222-0.994c-0.273-0.975-1.315-1.607-1.982-2.275c-1.213-1.182-2.512-2.705-1.812-4.469
		c0.342-0.633,1.06-0.855,1.76-0.785c0.803,0.152,1.709,0.666,2.067,1.129c0.274,0.309,0.445,0.77,0.188,1.164
		c-0.222,0.307-0.581,0.324-0.974,0.273c-0.564-0.119-1.128-0.479-1.384-1.061c-0.085-0.139,0-0.48-0.273-0.445
		c-0.085,0.018-0.12,0.154-0.12,0.238c0,0.635,0.581,1.148,0.974,1.473c1.521,1.25,3.332,2.26,5.16,2.807
		c0.53,0.154,1.35,0.309,1.692-0.205c0.41-0.633-0.188-1.197-0.479-1.66c-1.008-1.523-2.631-2.602-4.169-3.561
		c-1.726-1.061-3.691-2.396-4.477-4.449c-0.205-0.65-0.17-1.559,0.325-2.141c-0.085-0.154-0.325-0.119-0.444-0.342
		c0.052-0.752-0.034-1.797,0.086-2.619c0.598,0.154,1.145,0.498,1.691,0.754c2.238,1.096,4.289,2.207,6.544,3.354
		c0.188,0.086,0.308,0.086,0.325-0.033c-0.085-0.223-0.341-0.547-0.547-0.754c-0.734-0.701-1.64-1.283-2.546-1.762l-0.034-0.086
		c0-0.342,0-0.428,0-0.84v-0.273c1.589,0.787,3.417,1.867,4.665,3.219c0.632,0.684,1.179,1.506,1.264,2.498
		c0,0.326-0.068,0.754-0.375,0.959c-0.274,0.258-0.667,0.258-1.025,0.273c0.222,0.309,0.444,0.564,0.649,0.857
		c0.496,0.648,1.008,1.643,0.529,2.463c-0.495,0.822-1.623,0.668-2.546,0.65v0.018c1.213,1.113,2.29,2.482,2.648,3.988
		c0.103,0.463,0.034,0.924-0.068,1.369c-0.12,0.205-0.188,0.445-0.358,0.633c-0.53,0.549-1.248,0.84-2.085,0.84
		c-0.308,0-0.718-0.086-1.025-0.119c-0.889-0.139-1.726-0.584-2.581-0.908c-0.034,0.119,0.051,0.309,0.068,0.463
		c0.051,0.238,0.068,0.529,0.12,0.77v0.104c1.863,0.957,3.878,2.104,5.246,3.816c0.495,0.598,0.734,1.42,0.649,2.277
		c-0.052,0.648-0.632,1.129-1.197,1.352C239.241,432.811,237.652,432.143,236.268,431.543L236.268,431.543z M233.226,426.717
		c0.496,0.172,0.975-0.104,1.316-0.463c0.103-0.205,0.341-0.514,0.256-0.77c-0.222-0.172-0.512-0.258-0.769-0.309
		c-0.53-0.104-1.282-0.41-1.777,0.104c-0.085,0.205-0.085,0.393-0.017,0.598C232.406,426.322,232.799,426.596,233.226,426.717
		L233.226,426.717z M237.703,429.182c0.53,0.119,1.213,0.443,1.709,0.068c0.171-0.086,0.188-0.291,0.171-0.496
		c-0.291-0.564-0.872-1.08-1.418-1.473c-0.649-0.48-1.418-0.992-2.204-1.266c-0.205,0.633-0.684,1.215-1.23,1.658
		c0.308,0.275,0.632,0.498,0.958,0.652C236.336,428.668,237.378,429.113,237.703,429.182L237.703,429.182z M239.121,414.582
		c0.171-0.053,0.342-0.053,0.427-0.189c0.034-0.119,0-0.205-0.085-0.326c-0.632-0.855-1.589-1.369-2.444-1.881
		c-1.315-0.771-2.75-1.422-4.169-2.021c-0.154,0-0.393-0.17-0.53,0.018c-0.085,0.24,0.137,0.496,0.273,0.686
		c1.23,1.574,3.11,2.465,4.87,3.219C238.011,414.324,238.489,414.529,239.121,414.582L239.121,414.582z M237.583,438.543
		c-2.666-0.906-5.126-2.43-7.348-4.295c-2.272-1.918-4.374-4.484-5.006-7.412c-0.154-0.736-0.052-1.643,0.529-2.225
		c0.547-0.564,1.487-0.549,2.153-0.359c0.854,0.24,1.828,0.873,1.999,1.797c0.034,0.273-0.103,0.463-0.308,0.633
		c-0.564,0.342-1.23,0.068-1.726-0.223c-0.359-0.307-0.701-0.684-0.751-1.146c0-0.068,0-0.24-0.188-0.188
		c-0.136,0-0.29,0.102-0.375,0.291c-0.171,0.633,0.188,1.232,0.495,1.693c1.197,1.73,3.025,3.287,4.648,4.451
		c2.256,1.643,4.785,2.875,7.399,3.645c1.47,0.43,3.435,0.635,4.887-0.068c1.401-0.684,2.153-2.293,2.084-3.799
		c-0.017-0.342-0.051-0.959-0.12-1.336c-0.479-2.498-1.384-4.877-1.999-7.342c-0.137-0.531-0.325-1.164-0.41-1.781
		c-0.017-0.324-0.137-0.633-0.137-0.957l-0.034-0.035c-0.051-1.027-0.103-2.156-0.034-3.148c0.051-0.891,0.205-1.797,0.393-2.652
		c0.291-0.686,0.547-1.371,0.872-2.021c0.734-1.488,1.845-3.133,3.366-4.021h0.085c-0.119,0.77-0.444,1.455-0.581,2.225
		c-0.171,1.027-0.359,2.174-0.359,3.234c0,0.104,0,0.189,0,0.223c0,1.096,0.256,2.09,0.667,3.014v0.051
		c-1.367,0.77-2.017,2.156-2.29,3.611c-0.068,0.736-0.068,1.404,0,2.139c0.103,0.395,0.103,0.771,0.171,1.199
		c0.513,2.705,1.486,5.221,1.897,7.959c0.17,1.848,0.188,4.16-1.162,5.58c-1.675,1.729-4.255,2.207-6.682,1.814
		C238.164,438.852,237.703,438.578,237.583,438.543L237.583,438.543z M231.278,405.525c-0.205-0.119-0.41-0.273-0.376-0.564
		c-0.034-0.803-0.034-1.283,0.034-2.396c0.273,0.018,0.513,0.207,0.718,0.309c0.581,0.273,1.248,0.549,1.828,0.959
		c0.223,0.205,0.188,0.6,0.188,0.838l-0.017,1.936c-0.103,0.137-0.222-0.018-0.308-0.035
		C232.645,406.297,231.91,405.902,231.278,405.525L231.278,405.525z M242.539,394.606c-2.136-0.89-4.425-2.379-5.673-4.467
		c-0.188-0.325-0.393-0.753-0.444-1.232c-0.154-0.394,0.017-0.839,0.154-1.215c0.513-0.805,1.589-0.856,2.495-0.736
		c0.547,0.068,1.145,0.291,1.709,0.411c0.068-0.24-0.018-0.445-0.103-0.668c-0.068-0.188-0.137-0.393-0.291-0.53
		c-2.854-0.941-5.451-2.482-7.98-4.022c-2.05-1.266-4.135-2.841-5.758-4.604c-0.53-0.6-1.145-1.369-1.265-2.14
		c-0.068-0.548-0.034-1.215,0.513-1.558c0.325-0.188,0.752-0.137,1.094,0.085c0.222,0.257,0.615,0.394,0.564,0.753
		c-0.035,0.085-0.12,0.12-0.188,0.085c-0.239-0.188-0.444-0.479-0.787-0.479c-0.085,0.069-0.05,0.223-0.017,0.292
		c1.042,1.386,2.563,2.464,3.913,3.491c2.324,1.763,4.921,3.116,7.502,4.279c1.896,0.856,3.913,1.677,6.015,2.02
		c0.308,0.052,0.872,0.154,1.127-0.137c0.103-0.223-0.102-0.376-0.239-0.548c-2.068-2.088-4.921-3.012-7.006-5.066
		c-0.768-0.771-1.572-1.763-1.452-2.961c0.017-0.428,0.154-0.805,0.444-1.078c-0.085-0.188-0.427-0.171-0.427-0.445
		c0.017-0.839,0-1.506,0.034-2.345c0.034-0.034,0.034-0.171,0.12-0.103c2.7,1.335,5.297,2.601,7.963,3.919
		c0.085,0.034,0.325,0.222,0.461,0.154c0.17-0.137-0.154-0.411-0.256-0.531c-0.804-0.907-1.846-1.472-2.837-2.071
		c-0.034-0.445-0.034-0.736,0-1.044c0.12,0.034,0.359,0.154,0.496,0.205c1.76,0.822,3.554,1.968,4.699,3.595
		c0.427,0.633,0.872,1.558,0.513,2.293c-0.308,0.411-0.769,0.479-1.23,0.479c-0.035,0.12,0.085,0.154,0.085,0.24
		c0.701,0.804,1.606,1.797,1.128,2.978c-0.427,0.65-1.196,0.719-1.965,0.719l0,0c0.752,0.702,1.504,1.369,1.982,2.276
		c0.239,0.531,0.154,1.267-0.205,1.746c-1.281,1.164-3.264,0.564-4.733,0.256c-0.274-0.051-0.582-0.171-0.872-0.223
		c-0.068,0.052,0.035,0.172,0.035,0.223c0.068,0.326,0.085,0.583,0.137,0.959c0.085,0.137,0.239,0.205,0.427,0.291
		c1.743,0.941,3.691,2.003,4.904,3.8c0.427,0.616,0.718,1.729,0.222,2.447c-0.564,0.839-1.589,0.941-2.443,0.89
		C244.196,395.223,243.308,394.932,242.539,394.606L242.539,394.606z M228.049,356.386c-3.008-0.804-4.87-1.883-4.87-3.098
		l-5.622,10.886c-0.068,0.137-0.102,0.308-0.102,0.479c0,0,0,0,0,0.017v69.68l0,0c0,5.547,10.936,10.031,24.059,10.031
		c2.58,0,5.058-0.172,7.381-0.496c3.606-12.084,6.323-30.656-1.931-48.303l0.649-0.445l0.153,0.017l0.171-0.171
		c7.21,10.167,10.287,20.865,11.294,30.74c0.547,5.598,0.376,10.869-0.068,15.422c3.793-1.711,6.168-3.953,6.391-6.453v-70.329
		c-0.017-0.068-0.051-0.137-0.085-0.188l-5.81-10.783c-0.222,2.448-8.441,4.484-18.215,4.484c-2.17,0-4.289-0.103-6.254-0.291
		c-2.255,15.678,2.102,22.867,2.973,24.083l-0.461-0.206l-0.153,0.051c-0.393-0.154-0.735-0.393-1.128-0.633
		C236.421,380.879,228.049,372.373,228.049,356.386L228.049,356.386z M223.162,353.271v0.017h0.017c-0.017,0-0.017,0-0.017,0
		V353.271L223.162,353.271z M230.902,377.884c-0.598-0.376-1.247-0.924-1.777-1.421c0.034-1.061-0.222-2.105-0.598-3.012
		c-0.445-1.061-1.162-1.968-1.897-2.841c-0.41-0.479-0.957-0.941-1.47-1.369c-0.051-0.051-0.102-0.051-0.102-0.137l0.017-0.034
		c1.127,0.274,2.136,0.753,3.041,1.387c2.273,1.557,3.964,4.005,4.016,6.812l0.034,0.103c-0.034,0.393,0.034,0.872-0.085,1.266
		C231.637,378.363,231.261,378.124,230.902,377.884L230.902,377.884z"/>
	<path fill-rule="evenodd" clip-rule="evenodd" fill="#BCBEC0" d="M235.345,357.601c-0.889-0.085-1.743-0.171-2.563-0.291
		c-0.769,8.13,0.342,16.671,4.802,24.237l0.888,0.376C238.472,381.923,232.73,374.991,235.345,357.601L235.345,357.601z
		 M259.353,441.059c-1.128,0.514-2.358,0.977-3.708,1.387c4.784-27.42-4.887-42.002-8.031-47.308l0.325-0.394
		C259.353,410.354,260.532,428.463,259.353,441.059L259.353,441.059z"/>
	
		<path fill-rule="evenodd" clip-rule="evenodd" fill="#BCBEC0" stroke="#000000" stroke-width="0.3325" stroke-miterlimit="2.6131" d="
		M257.986,441.658c-4.306,1.695-10.099,2.738-16.456,2.738c-6.493,0-12.389-1.094-16.711-2.84v0.975
		c0,2.156,7.621,3.834,16.626,3.834c8.988,0,16.541-1.746,16.541-3.816V441.658L257.986,441.658z"/>
	<path fill="none" stroke="#000000" stroke-width="0.3325" stroke-miterlimit="2.6131" d="M217.455,434.367
		c0,5.545,10.936,10.029,24.059,10.029s24.042-4.484,24.042-10.029c0,3.029-10.338,5.631-24.042,5.631
		S217.455,437.396,217.455,434.367L217.455,434.367z M265.556,364.653c0,4.022-15.054,5.631-24.042,5.631
		c-8.988,0-24.059-1.609-24.059-5.631v69.714c0,3.098,10.782,5.631,24.076,5.631c13.226,0,24.025-2.533,24.025-5.631l0,0V364.653
		L265.556,364.653z M259.66,353.356c-0.153,2.499-8.288,4.519-18.215,4.519c-10.082,0-18.284-2.054-18.284-4.587
		c0-0.017,0.017-0.017,0.017-0.017l-5.639,10.903c-0.068,0.154-0.085,0.325-0.085,0.479c0,3.098,10.782,5.631,24.076,5.631
		c13.226,0,24.025-2.533,24.025-5.631c0-0.154-0.034-0.325-0.103-0.479L259.66,353.356L259.66,353.356z"/>
	
		<path fill-rule="evenodd" clip-rule="evenodd" fill="#BCBEC0" stroke="#000000" stroke-width="0.3323" stroke-miterlimit="2.6131" d="
		M241.411,346.39c10.048,0,18.25,2.071,18.25,4.604c0,2.534-8.202,4.604-18.25,4.604c-10.064,0-18.266-2.071-18.266-4.604
		C223.145,348.461,231.346,346.39,241.411,346.39L241.411,346.39z"/>
	
		<path fill-rule="evenodd" clip-rule="evenodd" fill="#BCBEC0" stroke="#000000" stroke-width="0.3323" stroke-miterlimit="2.6131" d="
		M241.411,348.684c10.048,0,18.25,2.071,18.25,4.604c0,2.534-8.202,4.604-18.25,4.604c-10.064,0-18.266-2.071-18.266-4.604
		C223.145,350.755,231.346,348.684,241.411,348.684L241.411,348.684z"/>
	
		<path fill-rule="evenodd" clip-rule="evenodd" fill="#BCBEC0" stroke="#000000" stroke-width="0.3325" stroke-miterlimit="2.6131" d="
		M259.66,351.268c-0.581,2.379-8.543,4.331-18.232,4.331c-10.082,0-18.284-2.088-18.267-4.604l-0.017,2.293
		c0,2.585,8.407,4.604,18.301,4.604c9.893,0,18.215-2.088,18.215-4.587V351.268L259.66,351.268z"/>
	
		<path fill-rule="evenodd" clip-rule="evenodd" fill="#BCBEC0" stroke="#000000" stroke-width="0.3325" stroke-miterlimit="2.6131" d="
		M247.477,354.708c2.426,0,4.443-0.771,4.443-1.712c0-0.941-2.017-1.711-4.443-1.711c-0.854,0-2.119,0.291-3.452,0.188
		c-2.717-0.206-4.904-1.917-7.707-1.917c-2.888,0-5.211,0.976-5.211,2.157c0,1.181,2.358,2.156,5.246,2.156
		C247.204,353.87,243.871,354.708,247.477,354.708L247.477,354.708z M247.477,354.041c1.931,0,3.503-0.479,3.503-1.044
		c0-0.564-1.572-1.044-3.503-1.044c-1.965,0-3.537,0.479-3.537,1.044C243.94,353.562,245.512,354.041,247.477,354.041
		L247.477,354.041z"/>
</g>
</svg>
